<?xml version="1.0" encoding="UTF-8" standalone="no"?>
<svg
   xmlns:dc="http://purl.org/dc/elements/1.1/"
   xmlns:cc="http://creativecommons.org/ns#"
   xmlns:rdf="http://www.w3.org/1999/02/22-rdf-syntax-ns#"
   xmlns:svg="http://www.w3.org/2000/svg"
   xmlns="http://www.w3.org/2000/svg"
   xmlns:sodipodi="http://sodipodi.sourceforge.net/DTD/sodipodi-0.dtd"
   xmlns:inkscape="http://www.inkscape.org/namespaces/inkscape"
   version="1.1"
   id="svg2"
   xml:space="preserve"
   width="618.66669"
   height="389.33334"
   viewBox="0 0 618.66669 389.33334"
   sodipodi:docname="balenciaga-seeklogo.com.eps"><metadata
     id="metadata8"><rdf:RDF><cc:Work
         rdf:about=""><dc:format>image/svg+xml</dc:format><dc:type
           rdf:resource="http://purl.org/dc/dcmitype/StillImage" /></cc:Work></rdf:RDF></metadata><defs
     id="defs6" /><sodipodi:namedview
     pagecolor="#ffffff"
     bordercolor="#666666"
     borderopacity="1"
     objecttolerance="10"
     gridtolerance="10"
     guidetolerance="10"
     inkscape:pageopacity="0"
     inkscape:pageshadow="2"
     inkscape:window-width="640"
     inkscape:window-height="480"
     id="namedview4" /><g
     id="g10"
     inkscape:groupmode="layer"
     inkscape:label="ink_ext_XXXXXX"
     transform="matrix(1.3333333,0,0,-1.3333333,0,389.33333)"><g
       id="g12"
       transform="scale(0.1)"><path
         d="M 10.6172,18.5117 H 208.234 c 110.797,0 178.727,40.9727 178.727,153.7813 0,53.285 -20.488,85.758 -64.313,102.219 -59.964,22.519 -30.015,34.824 -2.984,45.789 38.594,15.652 57.926,53.476 57.926,105.707 0,93.605 -52.313,135.515 -164.125,135.515 H 9.59766 V 18.5117 Z M 131.008,104.875 v 153.371 h 56.664 c 57.504,0 84.641,-26.086 84.641,-77.16 0,-56.305 -35.528,-77.301 -86.747,-77.301 h -54.558 v 1.086 z m 0,230.996 v 146.731 h 58.769 c 51.149,0 73.129,-34.223 73.129,-77.086 0,-42.868 -24.961,-69.676 -72.074,-69.676 h -59.824 v 0.031"
         style="fill:#231f20;fill-opacity:1;fill-rule:evenodd;stroke:none"
         id="path14" /><path
         d="m 3511.93,18.8242 h 113.25 L 3489.89,561.523 H 3343.21 L 3206.96,18.8242 h 110.33 l 30.44,121.4378 h 133.72 l 30.51,-121.4026 z m -83.59,386.6918 c 15.2,-66.547 29.92,-133.282 44.87,-199.903 h -114.28 l 39.05,174.082 c 2.68,12.09 2.96,15.219 5.72,25.977 10.48,40.891 16.53,35.34 24.64,-0.156"
         style="fill:#231f20;fill-opacity:1;fill-rule:evenodd;stroke:none"
         id="path16" /><path
         d="m 1033.81,18.5117 h 282.67 V 99.1133 H 1151.36 V 562.246 H 1033.81 V 18.5117"
         style="fill:#231f20;fill-opacity:1;fill-rule:evenodd;stroke:none"
         id="path18" /><path
         d="m 1434.13,18.5117 h 322.85 V 105.52 h -195.62 v 150.218 h 176.7 v 87.903 h -176.74 v 130.953 h 187.88 v 86.929 H 1434.02 V 18.5898 l 0.11,-0.0781"
         style="fill:#231f20;fill-opacity:1;fill-rule:evenodd;stroke:none"
         id="path20" /><path
         d="m 1886.1,16.5742 h 103.36 c 0,130.4918 2,254.2068 -2.9,383.5668 -1.63,42.957 0.76,38.422 11.52,0.453 34.69,-122.301 80.3,-256.727 117.19,-384.0198 H 2290.7 V 561.523 h -111.2 c 0,-142.136 -0.77,-272.796 1.67,-413.855 1.32,-23.008 -3.95,-36.867 -12.29,-2.75 l -9.88,40.363 -89.68,376.207 H 1885.15 V 16.5742 h 0.95"
         style="fill:#231f20;fill-opacity:1;fill-rule:evenodd;stroke:none"
         id="path22" /><path
         d="m 2620.69,12.6836 c 124.38,0 188.17,10.8867 188.17,178.3754 H 2687 c -2.11,-52.508 -11.02,-108.2465 -64.27,-108.2465 -60.59,0 -72.56,48.3325 -72.56,158.6445 v 77.77 c 1.68,140.261 13.09,163.921 73.68,163.921 56.53,0 65.9,-46.324 67.93,-86.25 h 112.91 c 0,111.137 -53.33,171.094 -183.96,171.094 -145.38,0 -198.64,-103.855 -198.64,-246.711 v -77.765 c 0,-143.9183 53.22,-230.8324 198.6,-230.8324"
         style="fill:#231f20;fill-opacity:1;fill-rule:evenodd;stroke:none"
         id="path24" /><path
         d="m 2937.09,17.3906 h 118.93 V 561.844 H 2937.09 V 17.3906"
         style="fill:#231f20;fill-opacity:1;fill-rule:evenodd;stroke:none"
         id="path26" /><path
         d="m 3912.71,9.34375 c 64.84,0 127.58,15.62105 168.41,32.33205 V 298.988 h -181.99 v -77.785 h 67.53 V 99.9102 c -13.62,-8.3516 -32.19,-14.7422 -57.18,-14.7422 -77.37,0 -99.21,12.7578 -99.21,124.426 v 118.558 c 0,127.481 18.46,159.301 89.59,159.301 49.15,0 70.46,-48.035 71.55,-83.562 h 111.89 c -2.36,105.289 -66.95,166.062 -177.85,166.062 -154.83,0 -212.34,-105.469 -212.34,-250.668 V 242.02 C 3692.02,84.4297 3745.42,9.30859 3912.67,9.30859 l 0.04,0.03516"
         style="fill:#231f20;fill-opacity:1;fill-rule:evenodd;stroke:none"
         id="path28" /><path
         d="M 4523.75,18.8242 H 4637 L 4501.71,561.523 H 4355.04 L 4218.79,18.8242 h 110.32 l 30.44,121.4378 h 133.72 l 30.52,-121.4026 z m -83.59,386.6918 c 15.2,-66.547 29.93,-133.282 44.88,-199.903 h -114.29 l 39.06,174.082 c 2.67,12.09 2.95,15.219 5.71,25.977 10.49,40.891 16.54,35.34 24.64,-0.156"
         style="fill:#231f20;fill-opacity:1;fill-rule:evenodd;stroke:none"
         id="path30" /><path
         d="m 1610.06,2912.5 h 311.07 v -254.64 h -345.97 c -168.8,0 -308.84,-144.82 -325.99,-329 -52.75,0.42 -199.89,-20.16 -265.533,-36.45 6.843,342.25 286.053,620.09 626.423,620.09 z m 327.9,-988.77 V 1646.6 h -271.69 c -150.52,0 -299.8,54.35 -420.21,144.56 -39.09,29.29 -57.37,43.02 -89.42,79.24 -39.81,44.96 -46.19,53.33 9.52,53.33 257.27,0 514.54,0 771.8,0"
         style="fill:#231f20;fill-opacity:1;fill-rule:evenodd;stroke:none"
         id="path32" /><path
         d="m 2961.02,2912.5 c 348.13,0 664.43,-284.83 664.43,-632.95 v 0 c 0,-348.13 -284.82,-632.95 -632.95,-632.95 h -387.3 v -0.57 h -261.39 v 908.4 h 261.39 v -654.65 h 377.97 c 208.87,0 379.77,168.54 379.77,374.54 v 0 c 0,206 -189.78,374.54 -398.65,374.54 h -691.87 v -343.45 h -261.38 v 604.84 c 315.57,0 632.12,2.25 949.98,2.25"
         style="fill:#231f20;fill-opacity:1;fill-rule:evenodd;stroke:none"
         id="path34" /><path
         d="m 2682.21,2225.05 v -254.67 c 113.92,0 227.85,0 341.77,0 13.49,0 194.45,-0.54 259.66,254.67 h -601.43"
         style="fill:#231f20;fill-opacity:1;fill-rule:evenodd;stroke:none"
         id="path36" /><path
         d="M 2275.23,2249.76 H 1221.25 c -350.59,0 -637.445,-286.85 -637.445,-637.45 v 0 c 0,-350.6 286.851,-637.447 637.445,-637.447 h 1122.56 201.73 63.53 v 605.967 h -265.26 v -338.19 c -350.51,0 -701.02,0 -1051.52,0 -240.96,0 -438.106,169.81 -438.106,377.36 0,265.13 224.936,377.37 438.106,377.37 h 724.37 v -658.82 h 258.57 v 911.21"
         style="fill:#231f20;fill-opacity:1;fill-rule:evenodd;stroke:none"
         id="path38" /><path
         d="m 3683.79,2153.23 c 198.82,-104.93 335.16,-313.94 335.16,-553.28 v 0 c 0,-343.8 -281.28,-625.087 -625.09,-625.087 h -728.51 v 250.177 h 725.71 c 206.23,0 374.93,168.71 374.93,374.91 v 0.01 c 0,128.7 -65.72,242.8 -165.27,310.39 32.82,56.98 70.09,140.79 83.07,242.88"
         style="fill:#231f20;fill-opacity:1;fill-rule:evenodd;stroke:none"
         id="path40" /><path
         d="M 769.988,18.8242 H 883.242 L 747.945,561.523 H 601.27 L 465.02,18.8242 H 575.348 L 605.793,140.262 H 739.512 L 770.023,18.8594 Z M 686.398,405.516 C 701.594,338.969 716.324,272.234 731.27,205.613 H 616.992 l 39.055,174.082 c 2.676,12.09 2.953,15.219 5.715,25.977 10.484,40.891 16.535,35.34 24.636,-0.156"
         style="fill:#231f20;fill-opacity:1;fill-rule:evenodd;stroke:none"
         id="path42" /></g></g></svg>
