<?xml version="1.0" encoding="UTF-8" standalone="no"?>
<!-- Created with Inkscape (http://www.inkscape.org/) -->
<svg
   xmlns:dc="http://purl.org/dc/elements/1.1/"
   xmlns:cc="http://creativecommons.org/ns#"
   xmlns:rdf="http://www.w3.org/1999/02/22-rdf-syntax-ns#"
   xmlns:svg="http://www.w3.org/2000/svg"
   xmlns="http://www.w3.org/2000/svg"
   xmlns:sodipodi="http://sodipodi.sourceforge.net/DTD/sodipodi-0.dtd"
   xmlns:inkscape="http://www.inkscape.org/namespaces/inkscape"
   width="300"
   height="130"
   id="svg2528"
   sodipodi:version="0.32"
   inkscape:version="0.46"
   version="1.0"
   sodipodi:docname="Dior Logo.svg"
   inkscape:output_extension="org.inkscape.output.svg.inkscape">
  <defs
     id="defs2530">
    <clipPath
       id="clip7">
      <path
         d="M 6.96875,52.625 L 119.21094,52.625 L 119.21094,7.523438 L 6.96875,7.523438 L 6.96875,52.625 z"
         id="path2466" />
    </clipPath>
    <clipPath
       id="clip6">
      <path
         d="M -42.109375,721.17969 L 569.89062,721.17969 L 569.89062,-70.820312 L -42.109375,-70.820312 L -42.109375,721.17969 z"
         id="path2463" />
    </clipPath>
    <inkscape:perspective
       sodipodi:type="inkscape:persp3d"
       inkscape:vp_x="0 : 526.18109 : 1"
       inkscape:vp_y="0 : 1000 : 0"
       inkscape:vp_z="744.09448 : 526.18109 : 1"
       inkscape:persp3d-origin="372.04724 : 350.78739 : 1"
       id="perspective2536" />
  </defs>
  <sodipodi:namedview
     id="base"
     pagecolor="#ffffff"
     bordercolor="#666666"
     borderopacity="1.0"
     gridtolerance="10000"
     guidetolerance="10"
     objecttolerance="10"
     inkscape:pageopacity="0.0"
     inkscape:pageshadow="2"
     inkscape:zoom="1"
     inkscape:cx="202.64228"
     inkscape:cy="177.14286"
     inkscape:document-units="px"
     inkscape:current-layer="layer1"
     showgrid="false"
     inkscape:window-width="1259"
     inkscape:window-height="776"
     inkscape:window-x="0"
     inkscape:window-y="0" />
  <metadata
     id="metadata2533">
    <rdf:RDF>
      <cc:Work
         rdf:about="">
        <dc:format>image/svg+xml</dc:format>
        <dc:type
           rdf:resource="http://purl.org/dc/dcmitype/StillImage" />
      </cc:Work>
    </rdf:RDF>
  </metadata>
  <g
     inkscape:label="Layer 1"
     inkscape:groupmode="layer"
     id="layer1">
    <g
       transform="matrix(2.5120719,0,0,2.5120719,-8.3916897,-9.7350259)"
       id="g2491"
       clip-rule="nonzero"
       clip-path="url(#clip6)">
      <g
         id="g2493"
         clip-rule="nonzero"
         clip-path="url(#clip7)">
        <path
           id="path2495"
           d="M 101.37109,34.71875 C 101.33594,34.507812 101.33594,34.324219 102.38672,33.996094 C 103.43359,33.671875 105.98047,32.808594 107.52734,31.953125 C 109.07422,31.089844 109.33203,30.96875 109.69531,31.210938 C 110.05859,31.449219 109.95313,32.035156 109.95313,32.449219 L 109.95313,36.644531 C 110.51953,35.714844 112.37891,32.621094 113.85547,31.710938 C 115.01563,30.992188 115.42578,30.933594 116.14453,30.917969 C 117.00781,30.902344 119.04688,31.433594 119.13672,33.585938 C 119.20703,35.269531 117.96484,35.945312 117.17578,35.839844 C 116.54297,35.75 116.08984,35.167969 115.71484,34.582031 C 115.33594,33.988281 114.73438,33.636719 114.13281,33.839844 C 113.53125,34.046875 110.16016,36.234375 109.96875,39.34375 C 109.83203,41.632812 109.96875,48.769531 109.96875,48.769531 C 109.96875,49.851562 110.38281,50.269531 110.86719,50.558594 C 111.34766,50.851562 113.11719,50.867188 113.61328,50.9375 C 114.11719,51.007812 114.09766,51.125 114.09766,51.28125 C 114.09766,51.433594 114.09766,51.507812 113.65234,51.507812 L 101.80078,51.507812 C 101.42188,51.507812 101.26953,51.433594 101.26953,51.210938 C 101.26953,50.902344 101.76563,50.957031 102.14453,50.902344 C 102.52344,50.851562 104.52734,51.015625 105.10156,50.007812 C 105.52344,49.347656 105.47266,48.285156 105.47266,48.285156 L 105.41406,35.75 C 105.41406,34.738281 105.11328,34.589844 104.83594,34.429688 C 104.55469,34.269531 104.08984,34.183594 103.10937,34.515625 C 102.18359,34.820312 101.54688,35.105469 101.37109,34.71875"
           style="fill:#211e1e;fill-opacity:1;fill-rule:nonzero;stroke:none" />
        <path
           id="path2497"
           d="M 59.921875,34.722656 C 59.761719,34.414062 60.058594,34.214844 60.9375,33.984375 C 61.917969,33.722656 64.066406,33.070312 65.769531,32.105469 C 67.472656,31.144531 67.765625,31.042969 68.125,31.160156 C 68.488281,31.28125 68.453125,31.917969 68.453125,32.433594 L 68.453125,48.652344 C 68.453125,49.5625 68.574219,49.941406 68.984375,50.320312 C 69.398438,50.699219 70.429688,50.921875 71.769531,50.921875 C 72.375,50.921875 72.5625,50.992188 72.5625,51.25 C 72.5625,51.507812 72.375,51.507812 72.132812,51.507812 L 60.371094,51.507812 C 60.007812,51.507812 59.921875,51.351562 59.921875,51.199219 C 59.921875,51.007812 60.082031,50.886719 60.628906,50.886719 C 61.089844,50.886719 63.21875,51.046875 63.703125,49.941406 C 63.890625,49.519531 63.980469,48.929688 63.980469,48.378906 L 63.980469,35.511719 C 63.980469,34.535156 63.222656,34.101562 62.347656,34.3125 C 61.324219,34.546875 60.132812,35.125 59.921875,34.722656"
           style="fill:#211e1e;fill-opacity:1;fill-rule:nonzero;stroke:none" />
        <path
           id="path2499"
           d="M 65.917969,23.503906 C 67.515625,23.503906 68.8125,22.207031 68.8125,20.613281 C 68.8125,19.015625 67.515625,17.722656 65.917969,17.722656 C 64.324219,17.722656 63.03125,19.015625 63.03125,20.613281 C 63.03125,22.207031 64.324219,23.503906 65.917969,23.503906"
           style="fill:#211e1e;fill-opacity:1;fill-rule:nonzero;stroke:none" />
        <path
           id="path2501"
           d="M 80.054688,41.898438 C 80.636719,47.160156 83.769531,51.253906 87.652344,50.566406 C 91.542969,49.878906 93.492188,46.164062 93.023438,40.214844 C 92.542969,34.164062 89.550781,31.144531 85.523438,31.507812 C 81.359375,31.886719 79.46875,36.632812 80.054688,41.898438 M 83.90625,30.582031 C 88.917969,29.644531 96.046875,30.75 97.667969,38.59375 C 99.285156,46.4375 93.886719,50.613281 89.203125,51.632812 C 84.625,52.625 76.851562,51.917969 75.445312,43.480469 C 74.179688,35.90625 79.675781,31.371094 83.90625,30.582031"
           style="fill:#211e1e;fill-opacity:1;fill-rule:nonzero;stroke:none" />
        <path
           id="path2503"
           d="M 24.570312,50.238281 L 27.476562,50.238281 C 38.289062,50.238281 41.191406,49.234375 44.996094,44.179688 C 48.800781,39.125 49.253906,31.867188 49.253906,29.414062 C 49.253906,26.960938 48.601562,20.804688 44.796875,15.597656 C 40.988281,10.390625 34.632812,9.039062 29.074219,9.039062 L 24.546875,9.039062 C 23.472656,9.039062 23.417969,9.515625 23.417969,10.265625 L 23.417969,49.285156 C 23.417969,50.136719 23.71875,50.238281 24.570312,50.238281 M 6.964844,51.152344 C 6.964844,50.757812 7.476562,50.691406 7.953125,50.675781 C 13.457031,50.519531 14.484375,50.328125 15.113281,49.675781 C 15.457031,49.316406 15.960938,49.023438 15.960938,46.472656 L 15.960938,11.378906 C 15.960938,8.226562 12.132812,8.726562 9.429688,8.449219 C 8.480469,8.355469 8.402344,8.226562 8.402344,7.949219 C 8.402344,7.675781 8.582031,7.542969 9.078125,7.523438 L 31.253906,7.523438 C 55.636719,7.523438 56.882812,25.347656 56.882812,30.101562 C 56.882812,40.316406 50.128906,51.550781 36.011719,51.550781 L 7.675781,51.550781 C 7.328125,51.550781 6.964844,51.503906 6.964844,51.152344"
           style="fill:#211e1e;fill-opacity:1;fill-rule:nonzero;stroke:none" />
      </g>
    </g>
  </g>
</svg>
