<?xml version="1.0" standalone="no"?>
<!DOCTYPE svg PUBLIC "-//W3C//DTD SVG 20010904//EN"
 "http://www.w3.org/TR/2001/REC-SVG-20010904/DTD/svg10.dtd">
<svg version="1.0" xmlns="http://www.w3.org/2000/svg"
 width="300.000000pt" height="226.000000pt" viewBox="0 0 300.000000 226.000000"
 preserveAspectRatio="xMidYMid meet">

<g transform="translate(0.000000,226.000000) scale(0.100000,-0.100000)"
fill="#000000" stroke="none">
<path d="M860 1940 l0 -320 290 0 290 0 0 60 0 60 -227 2 -228 3 -3 193 -2
192 165 0 165 0 0 -60 0 -60 -65 0 -65 0 0 -70 0 -70 130 0 130 0 0 195 0 195
-290 0 -290 0 0 -320z"/>
<path d="M1562 2068 l3 -193 128 -3 127 -3 0 71 0 70 -60 0 -60 0 0 60 0 60
160 0 160 0 -2 -192 -3 -193 -227 -3 -228 -2 0 -60 0 -60 290 0 290 0 0 320 0
320 -290 0 -290 0 2 -192z"/>
<path d="M860 1170 l0 -320 290 0 290 0 0 190 0 190 -130 0 -130 0 0 -65 0
-64 63 -3 62 -3 0 -60 0 -60 -160 0 -160 0 -3 193 -2 192 230 0 230 0 0 65 0
65 -290 0 -290 0 0 -320z"/>
<path d="M1560 1425 l0 -65 230 0 230 0 -2 -192 -3 -193 -157 -3 -158 -3 0 66
0 65 60 0 60 0 0 65 0 65 -130 0 -130 0 0 -190 0 -190 290 0 290 0 0 320 0
320 -290 0 -290 0 0 -65z"/>
<path d="M925 402 l-40 -3 -39 -97 c-22 -53 -49 -117 -59 -141 l-19 -45 -60
142 -60 142 -43 0 -43 0 87 -187 c87 -187 88 -188 120 -188 33 0 33 0 117 185
46 101 83 187 82 190 -2 3 -21 4 -43 2z"/>
<path d="M2600 402 c0 -2 36 -49 80 -105 l80 -102 0 -82 0 -83 40 0 40 0 0 82
0 81 73 96 c39 53 74 99 75 103 2 5 -15 8 -37 8 -39 0 -43 -3 -92 -70 -28 -38
-55 -70 -59 -70 -5 0 -32 30 -60 68 -47 62 -55 67 -96 72 -24 3 -44 4 -44 2z"/>
<path d="M115 381 c-142 -64 -150 -255 -15 -331 38 -21 58 -25 130 -25 56 0
103 6 138 19 l53 18 -3 71 -3 72 -88 3 -88 3 3 -33 c3 -32 4 -33 56 -36 43 -3
52 -6 52 -21 0 -23 -27 -31 -108 -31 -103 0 -152 38 -152 118 0 53 20 93 56
112 41 22 149 18 208 -8 27 -12 50 -22 53 -22 2 0 3 17 1 37 -3 34 -7 39 -48
55 -63 24 -192 23 -245 -1z"/>
<path d="M467 213 l2 -188 30 -3 31 -3 0 190 0 191 -32 0 -33 0 2 -187z"/>
<path d="M1010 210 l0 -190 155 0 155 0 0 35 0 35 -120 0 -120 0 0 45 0 44 78
3 77 3 0 30 0 30 -78 3 -78 3 3 42 3 42 118 3 117 3 0 29 0 30 -155 0 -155 0
0 -190z"/>
<path d="M1380 210 l0 -190 35 0 34 0 3 127 3 126 115 -126 c102 -112 119
-126 148 -127 l32 0 0 190 0 190 -36 0 -37 0 7 -127 7 -128 -24 23 c-14 13
-67 70 -118 128 -87 96 -97 104 -131 104 l-38 0 0 -190z"/>
<path d="M1905 381 c-113 -52 -152 -157 -101 -267 49 -105 162 -139 310 -94
l66 21 0 39 0 39 -52 -24 c-63 -29 -153 -33 -199 -10 -87 46 -91 174 -6 225
43 27 137 26 196 0 58 -27 63 -26 59 13 -2 27 -10 36 -48 55 -57 29 -166 30
-225 3z"/>
<path d="M2240 212 l0 -188 28 1 c27 0 27 1 32 80 l5 80 98 3 97 3 0 -80 0
-79 30 -4 c17 -3 32 -2 35 0 3 3 5 88 5 189 l0 183 -35 0 -35 0 0 -75 0 -76
-97 3 -98 3 -3 73 -3 72 -29 0 -30 0 0 -188z"/>
</g>
</svg>
