<?xml version="1.0" encoding="UTF-8" standalone="no"?>
<!-- Created with Inkscape (http://www.inkscape.org/) -->

<svg
   xmlns:dc="http://purl.org/dc/elements/1.1/"
   xmlns:cc="http://creativecommons.org/ns#"
   xmlns:rdf="http://www.w3.org/1999/02/22-rdf-syntax-ns#"
   xmlns:svg="http://www.w3.org/2000/svg"
   xmlns="http://www.w3.org/2000/svg"
   version="1.1"
   width="413.0625"
   height="285.59375"
   id="svg2">
  <defs
     id="defs4" />
  <metadata
     id="metadata7">
    <rdf:RDF>
      <cc:Work
         rdf:about="">
        <dc:format>image/svg+xml</dc:format>
        <dc:type
           rdf:resource="http://purl.org/dc/dcmitype/StillImage" />
        <dc:title></dc:title>
      </cc:Work>
    </rdf:RDF>
  </metadata>
  <g
     transform="translate(-65.625,-517.625)"
     id="layer1">
    <g
       id="g3816">
      <path
         d="m 335.875,518.625 c -65.54374,0 -120.887,44.79167 -137.03125,105.34375 l 28.4375,0 C 242.12408,578.37391 285.07052,545.625 335.875,545.625 c 63.55632,0 114.8125,51.25618 114.8125,114.8125 0,63.55632 -51.25618,114.78125 -114.8125,114.78125 -49.56745,0 -91.63323,-31.16681 -107.75,-75.03125 l 31.625,0 0,-27.21875 -38,0 -17.5625,0 -9.5625,0 c 6.36539,72.3101 67.32153,129.25 141.25,129.25 78.1482,0 141.8125,-63.63305 141.8125,-141.78125 0,-78.1482 -63.6643,-141.8125 -141.8125,-141.8125 z"
         id="path3788"
         style="font-size:medium;font-style:normal;font-variant:normal;font-weight:normal;font-stretch:normal;text-indent:0;text-align:start;text-decoration:none;line-height:normal;letter-spacing:normal;word-spacing:normal;text-transform:none;direction:ltr;block-progression:tb;writing-mode:lr-tb;text-anchor:start;baseline-shift:baseline;color:#000000;fill:#000000;fill-opacity:1;stroke:#000000;stroke-width:2;stroke-miterlimit:4;stroke-opacity:1;stroke-dasharray:none;marker:none;visibility:visible;display:inline;overflow:visible;enable-background:accumulate;font-family:Sans;-inkscape-font-specification:Sans" />
      <path
         d="m 208.4375,518.625 c 65.54374,0 120.887,44.79167 137.03125,105.34375 l -28.4375,0 C 302.18842,578.37391 259.24198,545.625 208.4375,545.625 c -63.55632,0 -114.8125,51.25618 -114.8125,114.8125 0,63.55632 51.25618,114.78125 114.8125,114.78125 49.56745,0 91.63323,-31.16681 107.75,-75.03125 l -31.625,0 0,-27.21875 38,0 17.5625,0 9.5625,0 c -6.36539,72.3101 -67.32153,129.25 -141.25,129.25 -78.1482,0 -141.8125,-63.63305 -141.8125,-141.78125 0,-78.1482 63.6643,-141.8125 141.8125,-141.8125 z"
         id="path3788-1"
         style="font-size:medium;font-style:normal;font-variant:normal;font-weight:normal;font-stretch:normal;text-indent:0;text-align:start;text-decoration:none;line-height:normal;letter-spacing:normal;word-spacing:normal;text-transform:none;direction:ltr;block-progression:tb;writing-mode:lr-tb;text-anchor:start;baseline-shift:baseline;color:#000000;fill:#000000;fill-opacity:1;stroke:#000000;stroke-width:2;stroke-miterlimit:4;stroke-opacity:1;stroke-dasharray:none;marker:none;visibility:visible;display:inline;overflow:visible;enable-background:accumulate;font-family:Sans;-inkscape-font-specification:Sans" />
    </g>
  </g>
</svg>
