<?xml version="1.0" encoding="UTF-8" standalone="no"?>
<svg
   xmlns:dc="http://purl.org/dc/elements/1.1/"
   xmlns:cc="http://creativecommons.org/ns#"
   xmlns:rdf="http://www.w3.org/1999/02/22-rdf-syntax-ns#"
   xmlns:svg="http://www.w3.org/2000/svg"
   xmlns="http://www.w3.org/2000/svg"
   xmlns:sodipodi="http://sodipodi.sourceforge.net/DTD/sodipodi-0.dtd"
   xmlns:inkscape="http://www.inkscape.org/namespaces/inkscape"
   version="1.1"
   id="svg2"
   xml:space="preserve"
   width="260.48001"
   height="158.18668"
   viewBox="0 0 260.48001 158.18668"
   sodipodi:docname="major-league-baseball.eps"><metadata
     id="metadata8"><rdf:RDF><cc:Work
         rdf:about=""><dc:format>image/svg+xml</dc:format><dc:type
           rdf:resource="http://purl.org/dc/dcmitype/StillImage" /></cc:Work></rdf:RDF></metadata><defs
     id="defs6" /><sodipodi:namedview
     pagecolor="#ffffff"
     bordercolor="#666666"
     borderopacity="1"
     objecttolerance="10"
     gridtolerance="10"
     guidetolerance="10"
     inkscape:pageopacity="0"
     inkscape:pageshadow="2"
     inkscape:window-width="640"
     inkscape:window-height="480"
     id="namedview4" /><g
     id="g10"
     inkscape:groupmode="layer"
     inkscape:label="ink_ext_XXXXXX"
     transform="matrix(1.3333333,0,0,-1.3333333,0,158.18667)"><g
       id="g12"
       transform="scale(0.1)"><path
         d="m 270.039,1186.39 c -65.519,0 -118.269,-52.75 -118.269,-118.28 V 289.047 c 0,-65.527 52.75,-118.277 118.269,-118.277 H 1646.5 l 285.17,115.668 -81.76,899.422 -1579.871,0.53"
         style="fill:#ffffff;fill-opacity:1;fill-rule:nonzero;stroke:none"
         id="path14" /><path
         d="m 1835.28,1186.39 c 65.53,0 118.27,-52.75 118.27,-118.28 V 289.047 c 0,-65.527 -52.74,-118.277 -118.27,-118.277 h -215.97 l 3.11,86.89 c 121.19,-6.086 201.47,9.051 245.99,58.106 0.26,20.945 16.38,56.25 -15.75,115.73 -17.59,32.59 -38.86,72.434 -110.27,121.145 -3.75,54.07 -32.89,80.039 -53.83,105.605 -23.41,28.602 -39.82,54.109 -63.89,65.945 l -282.73,461.669 493.34,0.53"
         style="fill:#ed1832;fill-opacity:1;fill-rule:nonzero;stroke:none"
         id="path16" /><path
         d="M 118.496,1186.39 C 52.9688,1186.39 0.214844,1133.64 0.214844,1068.11 V 289.047 C 0.214844,223.52 52.9688,170.77 118.496,170.77 h 696.785 c -7.742,26.605 -29.304,83.921 -48.472,84.027 -15.344,1.308 -73.633,-5.945 -83.75,5.168 44.109,324.5 100.836,300.566 158.14,342.762 10.442,7.687 -7.144,17.246 -0.203,27.003 8.621,12.129 -9.433,24.09 -2.891,35.848 9.993,17.981 -69.113,-2.644 -62.863,15.195 12.258,34.922 26.582,57.688 35.293,87.696 7.231,24.883 -0.762,13.437 -0.722,24.66 0.058,16.785 -126.739,-9.133 -122.86,6.836 7.129,29.344 110.692,58.594 109.285,87.605 -6.316,130.95 102.785,199.24 180.434,196.77 136.258,2.36 174.378,-12.51 223.578,-102.012 32.43,-64.707 71.1,-172.14 1.88,-202.101 4.28,-31.504 11.52,-58.536 29.4,-69.618 24.2,0.887 33.55,-1.242 53.94,-1.183 144.15,0.39 211.26,-11.055 245.57,-34.539 l 9.1,59.656 -344.64,451.317 -1077.004,0.53"
         style="fill:#232e62;fill-opacity:1;fill-rule:nonzero;stroke:none"
         id="path18" /><path
         d="M 1863.16,2.66016 V 137.941 h 26 V 21.3789 h 47.61 V 2.66016 Z m -87.83,0 V 137.941 h 26 V 21.3789 h 47.6 V 2.66016 Z m -103.75,0 25.76,135.28084 h 33.83 L 1758.12,2.66016 h -26.48 l -4.38,27.30864 h -26 L 1697.1,2.66016 Z m 32.05,45.30074 h 21.13 l -9.61,78.5701 h -1.31 z M 1574,2.66016 V 137.941 h 32.53 c 18.83,0 31.85,-2.589 39.06,-7.761 7.19,-5.18 10.8,-14.321 10.8,-27.399 0,-8.3513 -1.37,-14.8201 -4.1,-19.4216 -2.73,-4.5977 -7.18,-7.9297 -13.35,-10 6.88,-2.0703 11.93,-5.6485 15.13,-10.7305 3.21,-5.0898 4.81,-12.0508 4.81,-20.8789 0,-13.8203 -4,-23.8008 -11.99,-29.9102 -7.99,-6.12105 -21.01,-9.17964 -39.06,-9.17964 z m 26,17.35154 h 9.26 c 8.55,0 14.52,1.6875 17.93,5.0703 3.4,3.3789 5.1,9.4297 5.1,18.1368 0,7.6015 -1.68,12.9218 -5.04,15.9296 -3.37,3.0235 -9.36,4.5313 -17.99,4.5313 H 1600 Z m 0,61.3867 h 7.83 c 8.16,0 13.88,1.4727 17.16,4.4219 3.28,2.961 4.92,8.2188 4.92,15.7697 0,7.242 -1.6,12.269 -4.8,15.058 -3.21,2.813 -8.8,4.211 -16.8,4.211 H 1600 Z M 1483.79,2.66016 V 137.941 h 69.56 v -18.179 h -43.56 V 82.3086 h 34.07 V 63.8594 h -34.07 V 20.8281 h 47.6 V 2.66016 Z m -97.33,35.16794 24.8,2.8321 v -1.1914 c 0,-7.3086 1.23,-12.8086 3.68,-16.4883 2.45,-3.6797 6.17,-5.5313 11.16,-5.5313 4.36,0 7.72,1.3008 10.09,3.8906 2.37,2.5899 3.57,6.2813 3.57,11.0899 0,3.3008 -0.81,6.5391 -2.45,9.7305 -1.62,3.1992 -4.13,6.6211 -7.52,10.2812 -3.26,3.3477 -8.79,8.6406 -16.63,15.8477 -7.83,7.2109 -13.09,12.7109 -15.79,16.4922 -3,4.2578 -5.26,8.3593 -6.76,12.2773 -1.51,3.9294 -2.26,7.6914 -2.26,11.2814 0,9.93 3.33,17.808 9.97,23.621 6.65,5.82 15.6,8.73 26.84,8.73 11.47,0 20.52,-2.961 27.17,-8.871 6.65,-5.91 10.21,-14.218 10.69,-24.929 l -23.51,-2.289 c -0.39,6.457 -1.74,11.16 -4.03,14.109 -2.3,2.949 -5.73,4.437 -10.32,4.437 -3.41,0 -6.22,-1.168 -8.43,-3.527 -2.22,-2.34 -3.33,-5.34 -3.33,-8.992 0,-3.219 1.09,-6.789 3.26,-10.6876 2.18,-3.8906 5.24,-7.7617 9.21,-11.6016 1.49,-1.4609 3.75,-3.5898 6.76,-6.3906 10.68,-10.1094 17.89,-17.3906 21.61,-21.8398 3.55,-4.1992 6.21,-8.5781 7.95,-13.1485 1.74,-4.5625 2.6,-9.4101 2.6,-14.5312 0,-9.5586 -3.59,-17.3477 -10.8,-23.37892 C 1446.8,3.01953 1437.5,0 1426.1,0 c -11.79,0 -21.11,3.26172 -27.96,9.78125 -6.84,6.51955 -10.74,15.86715 -11.68,28.04685 z M 1292.21,2.66016 1317.96,137.941 h 33.84 L 1378.74,2.66016 h -26.47 l -4.4,27.30864 h -25.99 l -4.16,-27.30864 z m 32.05,45.30074 h 21.12 l -9.61,78.5701 h -1.31 z M 1194.63,2.66016 V 137.941 h 32.53 c 18.83,0 31.84,-2.589 39.05,-7.761 7.2,-5.18 10.8,-14.321 10.8,-27.399 0,-8.3513 -1.37,-14.8201 -4.1,-19.4216 -2.72,-4.5977 -7.18,-7.9297 -13.35,-10 6.89,-2.0703 11.93,-5.6485 15.14,-10.7305 3.2,-5.0898 4.8,-12.0508 4.8,-20.8789 0,-13.8203 -3.99,-23.8008 -11.99,-29.9102 -7.99,-6.12105 -21.01,-9.17964 -39.05,-9.17964 z m 26,17.35154 h 9.25 c 8.55,0 14.52,1.6875 17.93,5.0703 3.4,3.3789 5.1,9.4297 5.1,18.1368 0,7.6015 -1.68,12.9218 -5.04,15.9296 -3.37,3.0235 -9.36,4.5313 -17.99,4.5313 h -9.25 z m 0,61.3867 h 7.83 c 8.15,0 13.86,1.4727 17.16,4.4219 3.28,2.961 4.92,8.2188 4.92,15.7697 0,7.242 -1.6,12.269 -4.81,15.058 -3.2,2.813 -8.81,4.211 -16.79,4.211 h -8.31 z M 1055.99,2.66016 V 137.941 h 69.56 v -18.179 h -43.57 V 82.3086 h 34.06 V 63.8594 h -34.06 V 20.8281 h 47.6 V 2.66016 Z M 945.352,44.9492 v 92.9918 h 25.996 V 39.4688 c 0,-7.4297 1.152,-12.75 3.449,-15.9375 2.293,-3.1915 6.004,-4.8008 11.148,-4.8008 5.149,0 8.868,1.6093 11.164,4.8008 2.293,3.1875 3.441,8.5078 3.441,15.9375 v 98.4722 h 25.76 V 44.9492 c 0,-16.2578 -3.11,-27.789 -9.32,-34.5781 -6.21,-6.78126 -16.56,-10.179694 -31.045,-10.179694 -14.558,0 -24.961,3.398434 -31.218,10.179694 -6.25,6.7891 -9.375,18.3203 -9.375,34.5781 z M 918.293,2.66016 h -12.348 l -6.297,9.94924 C 896.094,8.83984 891.875,5.98828 887.012,4.07813 882.141,2.14844 876.777,1.19141 870.93,1.19141 c -12.903,0 -22.317,3.75781 -28.254,11.27739 -5.938,7.5195 -8.906,19.4804 -8.906,35.8593 v 43.9414 c 0,17.1095 3.3,29.4215 9.914,36.9495 6.609,7.519 17.39,11.281 32.339,11.281 13.86,0 24.36,-3.531 31.528,-10.59 7.156,-7.07 10.742,-17.371 10.742,-30.8787 v -4.9297 h -26.477 v 8.8474 c 0,7.133 -1.269,12.313 -3.796,15.539 -2.532,3.223 -6.528,4.832 -11.997,4.832 -5.457,0 -9.453,-1.609 -11.98,-4.832 -2.539,-3.226 -3.801,-8.406 -3.801,-15.539 V 38.3711 c 0,-7.1328 1.262,-12.3008 3.801,-15.5195 C 866.57,19.6094 870.566,18 876.023,18 c 5.469,0 9.465,1.6094 11.997,4.8516 2.527,3.2187 3.796,8.3867 3.796,15.5195 V 54.0898 H 877.93 v 16.8907 h 40.363 z m -186.367,0 25.762,135.28084 h 33.828 L 818.457,2.66016 H 791.992 L 787.598,29.9688 H 761.602 L 757.441,2.66016 Z m 32.051,45.30074 h 21.121 l -9.61,78.5701 H 774.18 Z M 651.914,2.66016 V 137.941 h 69.563 V 119.762 H 677.91 V 82.3086 h 34.07 V 63.8594 H 677.91 V 20.8281 h 47.61 V 2.66016 Z m -87.844,0 V 137.941 h 25.996 V 21.3789 h 47.61 V 2.66016 Z m -153.836,0 V 137.941 h 28.731 c 20.41,0 34.426,-2.851 42.019,-8.543 7.602,-5.699 11.399,-16 11.399,-30.9175 0,-9.1289 -1.641,-16.4805 -4.934,-22.0586 -3.277,-5.5821 -8.445,-9.7617 -15.484,-12.5625 L 495.105,2.66016 H 468.281 L 447.629,59.5586 H 436.23 V 2.66016 Z M 436.23,76.9219 h 6.29 c 8.867,0 14.98,1.6172 18.339,4.8398 3.371,3.2266 5.047,9.168 5.047,17.8086 0,7.8597 -1.582,13.3397 -4.746,16.4497 -3.164,3.101 -8.621,4.66 -16.387,4.66 H 436.23 Z M 297.703,92.2695 c 0,17.1095 3.305,29.4215 9.914,36.9495 6.613,7.519 17.395,11.281 32.344,11.281 14.883,0 25.644,-3.781 32.297,-11.328 6.637,-7.551 9.969,-19.852 9.969,-36.9025 V 48.3281 c 0,-17.1172 -3.332,-29.4375 -9.969,-36.9961 C 365.605,3.78125 354.844,0 339.961,0 325.012,0 314.23,3.78125 307.617,11.332 c -6.609,7.5586 -9.914,19.8789 -9.914,36.9961 z M 324.18,102.949 V 37.6406 c 0,-7.1211 1.258,-12.289 3.8,-15.5312 2.528,-3.2188 6.524,-4.8399 11.981,-4.8399 5.461,0 9.465,1.6211 11.992,4.8399 2.527,3.2422 3.801,8.4101 3.801,15.5312 v 65.3084 c 0,7.133 -1.274,12.313 -3.801,15.539 -2.527,3.223 -6.531,4.832 -11.992,4.832 -5.457,0 -9.453,-1.609 -11.981,-4.832 -2.542,-3.226 -3.8,-8.406 -3.8,-15.539 z M 219.719,1.73828 V 20.3711 c 1.582,-0.4219 3.14,-0.7422 4.683,-0.9492 1.543,-0.2227 3.032,-0.3203 4.453,-0.3203 5.383,0 9.165,1.4882 11.34,4.4804 2.176,2.9766 3.262,8.5469 3.262,16.7188 v 97.6402 h 25.762 V 37.6406 c 0,-13.4023 -2.735,-22.9609 -8.196,-28.67966 -5.457,-5.72266 -14.48,-8.589846 -27.058,-8.589846 -2.293,0 -4.629,0.117187 -7,0.367187 -2.387,0.242188 -4.797,0.570309 -7.246,0.999999 z m -91.281,0.92188 25.75,135.28084 h 33.839 L 214.973,2.66016 H 188.496 L 184.102,29.9688 H 158.105 L 153.953,2.66016 Z m 32.05,45.30074 h 21.121 l -9.605,78.5701 h -1.313 z M 0,2.66016 V 137.941 H 33.5938 L 49.6172,65.8711 c 0.8711,-3.8906 1.6797,-8.5898 2.4336,-14.0703 0.75,-5.4805 1.4844,-11.9297 2.1953,-19.3711 0.4727,7.1289 1.0859,13.4297 1.8398,18.9101 0.75,5.4883 1.6797,10.2618 2.793,14.3516 L 76.5625,137.941 H 108.848 V 2.66016 H 87.1289 c -0.1641,4.07031 -0.2656,8.44924 -0.3008,13.10154 -0.0429,4.6602 -0.0586,11.4688 -0.0586,20.418 0,17.6016 0.3203,33.8398 0.9453,48.7422 0.6329,14.8867 1.6329,28.5661 2.9688,41.0581 L 60.3008,2.66016 H 47.3633 L 19.4648,125.98 C 20.2539,108.5 20.8477,89.5508 21.2383,69.1484 21.6406,48.75 21.8359,26.5898 21.8359,2.66016 H 0"
         style="fill:#ed1832;fill-opacity:1;fill-rule:nonzero;stroke:none"
         id="path20" /><path
         d="m 314.91,413.586 c 0.024,-43.172 -34.961,-78.172 -78.125,-78.191 -43.172,-0.02 -78.18,34.968 -78.191,78.132 0,0.02 0,0.039 0,0.059 -0.02,43.164 34.961,78.176 78.136,78.184 43.165,0.019 78.172,-34.961 78.18,-78.125 0,-0.02 0,-0.04 0,-0.059"
         style="fill:#ffffff;fill-opacity:1;fill-rule:nonzero;stroke:none"
         id="path22" /></g></g></svg>
