<?xml version="1.0" encoding="utf-8"?><svg version="1.1" id="Layer_1" xmlns="http://www.w3.org/2000/svg" xmlns:xlink="http://www.w3.org/1999/xlink" x="0px" y="0px" viewBox="0 0 122.88 64.2" style="enable-background:new 0 0 122.88 64.2" xml:space="preserve"><style type="text/css"><![CDATA[
	.st0{fill-rule:evenodd;clip-rule:evenodd;}
]]></style><g><path class="st0" d="M20.6,39.3c-0.98,0-1.74,0.68-1.74,1.68s0.77,1.68,1.74,1.68c0.97,0,1.74-0.68,1.74-1.68 C22.34,39.98,21.57,39.3,20.6,39.3L20.6,39.3z M100.06,1.8c0.24-0.01,0.44-0.14,0.44-0.48c0-0.44-0.29-0.55-0.76-0.55h-0.68v1.81 h0.46V1.82h0.08L100,2.58h0.53L100.06,1.8L100.06,1.8z M99.77,1.51h-0.26V1.09h0.22c0.13,0,0.29,0.02,0.29,0.19 C100.02,1.47,99.93,1.51,99.77,1.51L99.77,1.51L99.77,1.51z M94.57,5.66l2.12-5.55H72.66l-8.25,10l3.81-10h-7.98l-12.4,33.32h7.88 l5.29-13.93l0.36,13.93l11.33-0.02c-21.47,5.82-41.82,11.33-41.82,11.33c-11.51,3.23-24.64-3.81-15.15-22.79 C4.74,34.86-5.65,52.06,3.52,59.97c8.89,7.67,19.99,3.13,27.56,0.1c7.57-3.03,91.27-39.38,91.27-39.38 c0.81-0.4,0.66-0.91-0.35-0.66c-0.17,0.04-16.39,4.44-35.1,9.5l0.93-2.59h-9.19l3.02-8.08h7.57l2.33-6.21H84l2.6-7.02H94.57 L94.57,5.66z M69.19,31.2l-0.5-17.37L80.59,0.76L69.19,31.2L69.19,31.2z M20.89,41.1c0.24-0.01,0.44-0.14,0.44-0.48 c0-0.44-0.29-0.54-0.76-0.54h-0.68v1.81h0.46v-0.77h0.08l0.42,0.77h0.52L20.89,41.1L20.89,41.1z M20.6,40.81h-0.26v-0.42h0.22 c0.13,0,0.29,0.02,0.29,0.19C20.85,40.77,20.76,40.81,20.6,40.81L20.6,40.81z M99.76,0c-0.98,0-1.74,0.68-1.74,1.68 s0.77,1.68,1.74,1.68c0.97,0,1.74-0.68,1.74-1.68C101.51,0.68,100.74,0,99.76,0L99.76,0z M99.76,2.88c-0.7,0-1.21-0.51-1.21-1.2 c0-0.69,0.51-1.2,1.21-1.2c0.69,0,1.21,0.52,1.21,1.2C100.98,2.36,100.45,2.88,99.76,2.88L99.76,2.88z M20.6,42.18 c-0.7,0-1.21-0.51-1.21-1.2s0.51-1.2,1.21-1.2c0.69,0,1.21,0.52,1.21,1.2C21.81,41.66,21.28,42.18,20.6,42.18L20.6,42.18z M37.55,33.42h-8.48l0.96-14.74l-5.51,14.74h-7.88L29.15,0.1h8.38l-0.97,14.94L42.17,0.1h7.88L37.55,33.42L37.55,33.42z M38.57,33.42L51.07,0.1h7.88l-12.5,33.32H38.57L38.57,33.42z"/></g></svg>