<?xml version="1.0" encoding="UTF-8" standalone="no"?>
<!-- Created with Inkscape (http://www.inkscape.org/) -->

<svg
   xmlns:svg="http://www.w3.org/2000/svg"
   xmlns="http://www.w3.org/2000/svg"
   version="1.1"
   width="233.8575"
   height="46.58567"
   id="svg3679"
   xml:space="preserve"><defs
     id="defs3683" /><g
     transform="matrix(1.25,0,0,-1.25,-255.11875,549.47375)"
     id="g3689"><path
       d="m 372.861,438.842 18.32,0 0,-2.919 c -0.532,0.177 -1.091,0.273 -1.651,0.273 l -10.53,0 0,-13.641 10.244,0 c 0.737,0 1.391,0.081 1.937,0.218 l 0,-2.906 c -0.464,0.109 -1.105,0.164 -1.896,0.164 l -10.285,0 0,-14.105 10.217,0 c 0.559,0 1.228,0.082 1.964,0.259 l 0,-3.137 -18.293,0 c 0.137,0.518 0.219,1.078 0.219,1.691 l 0,32.371 c 0,0.709 -0.082,1.295 -0.246,1.732"
       id="path3695"
       style="fill:#231f20;fill-opacity:1;fill-rule:evenodd;stroke:none" /><path
       d="m 368.619,429.553 -5.293,0.04 c -0.259,2.974 -1.964,5.853 -5.715,6.384 -8.035,0.723 -10.3,-8.102 -10.095,-14.555 0.205,-6.22 1.2,-15.782 9.494,-15.782 3.479,0 6.821,3.574 6.711,6.589 l 4.898,0.04 c -0.355,-6.22 -7.489,-9.821 -10.886,-9.944 -11.608,-0.396 -16.465,7.339 -16.71,18.375 -0.218,9.998 3.874,18.879 15.346,18.879 9.822,-0.137 11.718,-5.948 12.25,-10.026"
       id="path3697"
       style="fill:#231f20;fill-opacity:1;fill-rule:evenodd;stroke:none" /><path
       d="m 286.063,407.113 3.506,2.933 c 1.828,-3.015 3.329,-4.392 6.957,-4.392 3.683,0 6.78,2.237 6.78,6.192 0,1.951 -0.792,3.547 -2.36,4.747 -0.71,0.56 -2.51,1.528 -5.348,2.879 -4.242,2.032 -8.375,4.679 -8.375,9.998 0,6.712 5.702,9.672 11.717,9.891 3.561,0.136 7.981,-1.829 9.767,-4.038 l -3.56,-2.742 c -1.555,2.837 -4.297,3.928 -6.547,3.928 -4.543,0 -8.144,-5.265 -4.379,-8.894 0.954,-0.927 2.906,-2.073 5.879,-3.437 4.747,-2.224 8.798,-4.883 8.798,-10.763 0,-2.032 -0.532,-3.928 -1.582,-5.661 -2.114,-3.492 -5.647,-5.238 -10.585,-5.238 -5.675,0 -6.793,1.296 -10.668,4.597"
       id="path3699"
       style="fill:#231f20;fill-opacity:1;fill-rule:evenodd;stroke:none" /><path
       d="m 236.11,438.842 18.306,0 0,-2.919 c -0.532,0.177 -1.091,0.273 -1.65,0.273 l -10.531,0 0,-13.641 10.244,0 c 0.737,0 1.392,0.081 1.937,0.218 l 0,-2.906 c -0.464,0.109 -1.105,0.164 -1.882,0.164 l -10.299,0 0,-14.105 10.217,0 c 0.559,0 1.228,0.082 1.964,0.259 l 0,-3.137 -18.278,0 c 0.122,0.518 0.204,1.078 0.204,1.691 l 0,32.371 c 0,0.709 -0.082,1.295 -0.232,1.732"
       id="path3701"
       style="fill:#231f20;fill-opacity:1;fill-rule:evenodd;stroke:none" /><path
       d="m 204.095,438.842 6.657,0 c 0,-0.123 0,-0.246 0,-0.328 0,-0.3 0.095,-0.695 0.259,-1.2 l 9.384,-28.25 9.631,28.373 c 0.15,0.477 0.232,0.941 0.232,1.405 l 3.233,0 c -0.327,-0.573 -0.573,-1.078 -0.723,-1.528 l -10.995,-32.806 c -0.109,-0.314 -0.204,-0.805 -0.286,-1.46 l -5.457,0 c -0.068,0.437 -0.191,0.927 -0.368,1.46 l -10.776,32.547 c -0.123,0.3 -0.382,0.914 -0.778,1.787 l -0.013,0"
       id="path3703"
       style="fill:#231f20;fill-opacity:1;fill-rule:evenodd;stroke:none" /><path
       d="m 274.796,420.181 c 4.365,0.86 7.707,4.201 7.707,8.976 0,6.261 -5.238,9.685 -11.104,9.685 l -10.722,0 c 0.15,-0.546 0.233,-1.119 0.233,-1.719 l 0,-32.356 c 0,-0.696 -0.083,-1.282 -0.233,-1.719 l 6.384,0 c -0.15,0.532 -0.231,1.105 -0.231,1.719 l 0,14.868 2.045,-0.218 10.695,-16.369 6.425,0 -11.199,17.133 z m -1.105,2.728 c -1.159,-0.818 -2.551,-1.227 -4.147,-1.227 l -2.728,0 0,14.554 2.441,0 c 2.088,0 3.711,-0.518 4.871,-1.554 1.582,-1.433 2.387,-3.37 2.387,-5.798 0,-2.619 -0.942,-4.611 -2.824,-5.975"
       id="path3705"
       style="fill:#231f20;fill-opacity:1;fill-rule:evenodd;stroke:none" /><path
       d="m 339.959,404.534 -11.922,33.121 c -0.137,0.409 -0.218,0.819 -0.232,1.187 l -5.157,0 c 0,-0.423 -0.068,-0.873 -0.232,-1.323 l -11.553,-32.985 c -0.151,-0.476 -0.396,-0.968 -0.723,-1.486 l 3.328,0 c -0.013,0.545 0.055,1.05 0.205,1.486 l 3.423,9.727 13.164,0 3.383,-9.727 c 0.178,-0.531 0.259,-1.022 0.259,-1.486 l 6.903,0 c -0.396,0.559 -0.682,1.064 -0.846,1.486 z m -21.962,12.36 5.565,16.164 5.716,-16.164 -11.281,0"
       id="path3707"
       style="fill:#231f20;fill-opacity:1;fill-rule:evenodd;stroke:none" /></g></svg>